# xmcd
#
# Track frame offsets:
#	150
#	20470
#	38657
#	60285
#	77395
#	94922
#	112275
#	129180
#	150362
#	169395
#	187855
#	207187
#	230015
#	247932
#	265300
#	282905
#
# Disc length: 4002
#
# Revision: 1
# Processed by: cddbd v1.5.1PL0 Copyright (c) Steve Scherf et al.
# Submitted via: ExactAudioCopy v0.95a3
# Normalized: r0:TRMNUM
#
DISCID=c90fa010
DTITLE=teresaten - teresatenzenkyokusyuu1-1
DYEAR=1990
DGENRE=JPop
TTITLE0=namidano jyouken
TTITLE1=I Love You
TTITLE2=nagaragawa enka
TTITLE3=syuutou
TTITLE4=kitaguninoharu
TTITLE5=yagirinowatasi
TTITLE6=kuukou
TTITLE7=koibitotatino sinwa
TTITLE8=kanasiijiyuu
TTITLE9=Yes,ainitutumare
TTITLE10=sosite meguriai
TTITLE11=nagasarete
TTITLE12=jinsei iroiro
TTITLE13=kitasakaba
TTITLE14=furusatoha dokodesuka
TTITLE15=tugunai
EXTD=
EXTT0=
EXTT1=
EXTT2=
EXTT3=
EXTT4=
EXTT5=
EXTT6=
EXTT7=
EXTT8=
EXTT9=
EXTT10=
EXTT11=
EXTT12=
EXTT13=
EXTT14=
EXTT15=
PLAYORDER=
